<svg width="16" height="16" viewBox="0 0 16 16" fill="none" xmlns="http://www.w3.org/2000/svg">
<path d="M8 5.00012C8.55228 5.00012 9 5.44784 9 6.00012V10.1896C10.7251 10.4116 12 11.1932 12 12.1251L11.9951 12.2277C11.8882 13.2845 10.1402 14.1251 8 14.1251L7.59082 14.1144C5.64101 14.0153 4.10494 13.2163 4.00488 12.2277L4 12.1251C4 11.1932 5.27487 10.4116 7 10.1896V6.00012C7 5.44784 7.44772 5.00012 8 5.00012ZM7 10.6935C6.37213 10.7804 5.82192 10.9452 5.39551 11.1583C4.72488 11.4937 4.5 11.8643 4.5 12.1251C4.50014 12.386 4.72502 12.7567 5.39551 13.0919C6.03629 13.4122 6.95637 13.6251 8 13.6251C9.04362 13.6251 9.9637 13.4122 10.6045 13.0919C11.275 12.7567 11.4999 12.386 11.5 12.1251C11.5 11.8643 11.2751 11.4937 10.6045 11.1583C10.1781 10.9452 9.62781 10.7814 9 10.6945V11.0001C9 11.5524 8.55228 12.0001 8 12.0001C7.44772 12.0001 7 11.5524 7 11.0001V10.6935ZM8.04199 1.87512C8.61756 1.87512 9.08472 2.3416 9.08496 2.91711C9.08496 3.49284 8.61771 3.96008 8.04199 3.96008C7.46647 3.95984 7 3.49269 7 2.91711C7.00024 2.34175 7.46662 1.87536 8.04199 1.87512Z" fill="white"/>
</svg>
