<svg width="174" height="25" viewBox="0 0 174 25" fill="none" xmlns="http://www.w3.org/2000/svg">
<path d="M166.994 21.4166C165.764 21.4166 164.693 21.1445 163.782 20.6004C162.872 20.0392 162.172 19.2655 161.683 18.2792C161.211 17.2759 160.975 16.111 160.975 14.7847C160.975 13.4583 161.211 12.2934 161.683 11.2901C162.172 10.2868 162.863 9.51312 163.757 8.96897C164.651 8.42476 165.713 8.15268 166.944 8.15268C167.719 8.15268 168.41 8.28872 169.017 8.56079C169.625 8.83287 170.114 9.2155 170.484 9.70868V2.77063H174V21.2125H170.484V19.8096C170.13 20.3197 169.642 20.7193 169.017 21.0085C168.394 21.2805 167.719 21.4166 166.994 21.4166ZM167.551 18.3557C168.174 18.3557 168.722 18.2111 169.195 17.9221C169.667 17.633 170.029 17.2163 170.282 16.6722C170.552 16.1281 170.687 15.4988 170.687 14.7847C170.687 13.6963 170.4 12.829 169.827 12.1829C169.254 11.5197 168.495 11.1881 167.551 11.1881C166.927 11.1881 166.379 11.3411 165.907 11.6472C165.452 11.9363 165.089 12.3529 164.819 12.8971C164.566 13.4412 164.44 14.0704 164.44 14.7847C164.44 15.856 164.718 16.7232 165.274 17.3864C165.848 18.0326 166.606 18.3557 167.551 18.3557Z" fill="white"/>
<path d="M147.775 8.35696H151.291V10.1424C151.645 9.51327 152.16 9.02865 152.834 8.68856C153.525 8.33141 154.309 8.15283 155.186 8.15283C156.113 8.15283 156.931 8.36545 157.639 8.79055C158.364 9.21565 158.92 9.81083 159.309 10.5761C159.713 11.3413 159.916 12.217 159.916 13.2033V21.2127H156.375V13.9941C156.375 13.2118 156.147 12.5742 155.692 12.081C155.237 11.5709 154.646 11.3158 153.922 11.3158C153.416 11.3158 152.961 11.4433 152.556 11.6984C152.168 11.9365 151.856 12.2766 151.62 12.7187C151.401 13.1438 151.291 13.6284 151.291 14.1726V21.2127H147.775V8.35696Z" fill="white"/>
<path d="M138.944 21.4167C138.134 21.4167 137.41 21.2552 136.769 20.9321C136.145 20.592 135.656 20.1329 135.302 19.5547C134.948 18.9595 134.771 18.2963 134.771 17.5651C134.771 16.3238 135.192 15.3375 136.035 14.6062C136.896 13.875 138.033 13.5095 139.45 13.5095H141.574C141.895 13.5095 142.131 13.4244 142.283 13.2544C142.451 13.0843 142.535 12.8547 142.535 12.5657C142.535 12.0215 142.333 11.5879 141.928 11.2648C141.541 10.9247 140.993 10.7546 140.284 10.7546C139.796 10.7546 139.366 10.8482 138.995 11.0352C138.64 11.2222 138.37 11.4688 138.185 11.7749C138.017 12.081 137.924 12.4211 137.907 12.7952H134.771C134.821 11.928 135.074 11.1457 135.529 10.4485C136.002 9.73432 136.66 9.17318 137.502 8.76507C138.345 8.35696 139.332 8.15283 140.461 8.15283C141.541 8.15283 142.502 8.35696 143.345 8.76507C144.188 9.15612 144.845 9.71733 145.317 10.4485C145.806 11.1628 146.051 11.996 146.051 12.9482V21.2127H142.535V19.4271C142.316 20.0394 141.878 20.524 141.22 20.8811C140.579 21.2382 139.821 21.4167 138.944 21.4167ZM139.854 18.8405C140.68 18.8405 141.33 18.5684 141.802 18.0242C142.291 17.4801 142.535 16.7829 142.535 15.9326V15.7541H139.981C139.442 15.7541 139.003 15.9072 138.665 16.2132C138.329 16.5193 138.16 16.9189 138.16 17.4121C138.16 17.8372 138.312 18.1858 138.615 18.4579C138.936 18.713 139.349 18.8405 139.854 18.8405Z" fill="white"/>
<path d="M129.917 2.77063H133.432V21.2125H129.917V2.77063Z" fill="white"/>
<path d="M121.085 21.4167C120.276 21.4167 119.551 21.2552 118.91 20.9321C118.286 20.592 117.797 20.1329 117.443 19.5547C117.089 18.9595 116.912 18.2963 116.912 17.5651C116.912 16.3238 117.334 15.3375 118.177 14.6062C119.036 13.875 120.175 13.5095 121.591 13.5095H123.715C124.036 13.5095 124.271 13.4244 124.423 13.2544C124.592 13.0843 124.677 12.8547 124.677 12.5657C124.677 12.0215 124.474 11.5879 124.07 11.2648C123.681 10.9247 123.134 10.7546 122.426 10.7546C121.936 10.7546 121.506 10.8482 121.135 11.0352C120.782 11.2222 120.512 11.4688 120.327 11.7749C120.157 12.081 120.065 12.4211 120.048 12.7952H116.912C116.963 11.928 117.215 11.1457 117.671 10.4485C118.143 9.73432 118.8 9.17318 119.643 8.76507C120.487 8.35696 121.473 8.15283 122.602 8.15283C123.681 8.15283 124.642 8.35696 125.486 8.76507C126.329 9.15612 126.987 9.71733 127.458 10.4485C127.948 11.1628 128.192 11.996 128.192 12.9482V21.2127H124.677V19.4271C124.457 20.0394 124.019 20.524 123.361 20.8811C122.721 21.2382 121.961 21.4167 121.085 21.4167ZM121.996 18.8405C122.822 18.8405 123.471 18.5684 123.943 18.0242C124.432 17.4801 124.677 16.7829 124.677 15.9326V15.7541H122.122C121.582 15.7541 121.144 15.9072 120.807 16.2132C120.47 16.5193 120.301 16.9189 120.301 17.4121C120.301 17.8372 120.453 18.1858 120.756 18.4579C121.077 18.713 121.49 18.8405 121.996 18.8405Z" fill="white"/>
<path d="M114.99 11.3157C114.147 11.3157 113.515 11.6388 113.093 12.285C112.672 12.9312 112.461 13.8239 112.461 14.9632V21.2126H108.946V8.35681H112.461V10.4995C112.798 9.71725 113.211 9.16461 113.701 8.84151C114.206 8.5184 114.864 8.35681 115.673 8.35681H117.089V11.3157H114.99Z" fill="white"/>
<path d="M104.488 4.55652V8.35713H107.902V11.316H104.488V16.3919C104.488 17.0042 104.639 17.4633 104.943 17.7694C105.246 18.0755 105.685 18.2285 106.258 18.2285H107.902V21.2129H105.803C104.825 21.2129 103.973 21.0343 103.249 20.6773C102.524 20.3031 101.958 19.7675 101.554 19.0702C101.15 18.3561 100.947 17.5143 100.947 16.545V11.316H98.5188V8.35713H100.947V4.55652H104.488Z" fill="white"/>
<path d="M86.0235 8.35696H89.539V10.1424C89.8926 9.51327 90.4069 9.02865 91.0813 8.68856C91.7732 8.33141 92.5569 8.15283 93.4338 8.15283C94.3609 8.15283 95.1787 8.36545 95.8872 8.79055C96.6118 9.21565 97.1686 9.81083 97.5562 10.5761C97.9606 11.3413 98.1631 12.217 98.1631 13.2033V21.2127H94.6226V13.9941C94.6226 13.2118 94.395 12.5742 93.9398 12.081C93.4839 11.5709 92.8944 11.3158 92.1692 11.3158C91.6632 11.3158 91.208 11.4433 90.8036 11.6984C90.4153 11.9365 90.1035 12.2766 89.8675 12.7187C89.6483 13.1438 89.539 13.6284 89.539 14.1726V21.2127H86.0235V8.35696Z" fill="white"/>
<path d="M78.7496 21.4167C77.3674 21.4167 76.1786 21.1021 75.184 20.473C74.2054 19.8268 73.4642 18.9935 72.9582 17.9733C72.4522 16.9529 72.1996 15.8816 72.1996 14.7593C72.1996 13.6199 72.4355 12.5486 72.9074 11.5453C73.3793 10.542 74.0878 9.72582 75.0316 9.09667C75.9761 8.46744 77.1314 8.15283 78.497 8.15283C79.9133 8.15283 81.0938 8.45895 82.0375 9.07112C82.982 9.68328 83.6731 10.4655 84.1116 11.4178C84.5668 12.3701 84.7944 13.3734 84.7944 14.4277C84.7777 14.8018 84.761 15.1844 84.7436 15.5756H74.2479V13.3309H81.2789C81.2281 12.5827 80.9504 11.9705 80.4444 11.4944C79.9551 11.0012 79.3064 10.7546 78.497 10.7546C77.856 10.7546 77.3082 10.8906 76.853 11.1628C76.4145 11.4349 76.086 11.8599 75.8668 12.4381C75.6476 13.0163 75.5376 13.773 75.5376 14.7083C75.5376 15.4735 75.6643 16.1452 75.9169 16.7234C76.1703 17.2845 76.5329 17.7267 77.0048 18.0498C77.4933 18.3558 78.0752 18.5089 78.7496 18.5089C79.4582 18.5089 80.0393 18.3729 80.4952 18.1007C80.9504 17.8117 81.2455 17.3951 81.3798 16.8509H84.8194C84.6677 17.7692 84.3058 18.5769 83.7323 19.2741C83.1755 19.9543 82.4677 20.4815 81.6074 20.8556C80.7478 21.2297 79.795 21.4167 78.7496 21.4167Z" fill="white"/>
<path d="M65.5854 21.4167C64.2871 21.4167 63.1406 21.1277 62.1458 20.5495C61.151 19.9543 60.3754 19.1551 59.819 18.1518C59.2794 17.1485 59.0097 16.0261 59.0097 14.7848C59.0097 13.5434 59.2794 12.4211 59.819 11.4178C60.3754 10.3975 61.151 9.59828 62.1458 9.02009C63.1406 8.44196 64.2871 8.15283 65.5854 8.15283C66.6982 8.15283 67.7099 8.36545 68.6204 8.79055C69.5477 9.21565 70.2897 9.81083 70.8458 10.5761C71.4193 11.3243 71.7395 12.1915 71.807 13.1779H68.2663C68.1651 12.5997 67.8701 12.1235 67.3811 11.7494C66.8921 11.3753 66.3273 11.1883 65.6866 11.1883C65.0627 11.1883 64.5232 11.3413 64.0679 11.6474C63.6127 11.9534 63.267 12.3786 63.031 12.9228C62.7949 13.4669 62.6769 14.0876 62.6769 14.7848C62.6769 15.8561 62.9467 16.7234 63.4863 17.3866C64.0258 18.0327 64.7761 18.3558 65.7372 18.3558C66.3779 18.3558 66.9343 18.1858 67.4064 17.8457C67.8785 17.4886 68.182 17.0124 68.3169 16.4173H71.8829C71.782 17.3696 71.436 18.2283 70.8458 18.9935C70.2556 19.7418 69.4971 20.3369 68.5698 20.7791C67.6593 21.2042 66.6645 21.4167 65.5854 21.4167Z" fill="white"/>
<path d="M52.4188 21.4167C51.0362 21.4167 49.8475 21.1021 48.8527 20.473C47.8748 19.8268 47.1329 18.9935 46.6271 17.9733C46.1213 16.9529 45.8683 15.8816 45.8683 14.7593C45.8683 13.6199 46.1044 12.5486 46.5765 11.5453C47.0486 10.542 47.7568 9.72582 48.701 9.09667C49.6452 8.46744 50.8002 8.15283 52.1659 8.15283C53.5823 8.15283 54.7625 8.45895 55.7067 9.07112C56.6509 9.68328 57.3423 10.4655 57.7806 11.4178C58.2358 12.3701 58.4635 13.3734 58.4635 14.4277C58.4466 14.8018 58.4298 15.1844 58.4129 15.5756H47.917V13.3309H54.9479C54.8974 12.5827 54.6192 11.9705 54.1134 11.4944C53.6244 11.0012 52.9753 10.7546 52.1659 10.7546C51.5252 10.7546 50.9772 10.8906 50.522 11.1628C50.0836 11.4349 49.7548 11.8599 49.5356 12.4381C49.3164 13.0163 49.2068 13.773 49.2068 14.7083C49.2068 15.4735 49.3333 16.1452 49.5862 16.7234C49.8391 17.2845 50.2016 17.7267 50.6737 18.0498C51.1627 18.3558 51.7444 18.5089 52.4188 18.5089C53.127 18.5089 53.7087 18.3729 54.164 18.1007C54.6192 17.8117 54.9143 17.3951 55.0491 16.8509H58.4888C58.337 17.7692 57.9745 18.5769 57.4012 19.2741C56.8448 19.9543 56.1366 20.4815 55.2767 20.8556C54.4168 21.2297 53.4642 21.4167 52.4188 21.4167Z" fill="white"/>
<path d="M30.2812 3.3573H36.2246C37.9107 3.3573 39.445 3.6889 40.8276 4.35209C42.2103 4.99828 43.3147 5.99307 44.1408 7.33648C44.967 8.67987 45.3801 10.3294 45.3801 12.2849C45.3801 14.2235 44.967 15.873 44.1408 17.2334C43.3147 18.5767 42.2103 19.58 40.8276 20.2432C39.445 20.8894 37.9107 21.2126 36.2246 21.2126H30.2812V3.3573ZM35.8453 17.8966C36.8907 17.8966 37.8348 17.718 38.6779 17.3609C39.5378 16.9868 40.2291 16.3831 40.7518 15.5499C41.2745 14.7166 41.5358 13.6283 41.5358 12.2849C41.5358 10.9415 41.2745 9.85317 40.7518 9.01996C40.2291 8.18668 39.5378 7.58301 38.6779 7.20894C37.8348 6.83482 36.8907 6.64776 35.8453 6.64776H34.0748V17.8966H35.8453Z" fill="white"/>
<mask id="mask0_13_772" style="mask-type:luminance" maskUnits="userSpaceOnUse" x="0" y="0" width="24" height="25">
<path d="M23.9424 0H0V24.1469H23.9424V0Z" fill="white"/>
</mask>
<g mask="url(#mask0_13_772)">
<path d="M11.9712 24.1469C18.5827 24.1469 23.9424 18.7415 23.9424 12.0735C23.9424 5.40547 18.5827 0 11.9712 0C5.35969 0 0 5.40547 0 12.0735C0 18.7415 5.35969 24.1469 11.9712 24.1469Z" fill="url(#paint0_linear_13_772)"/>
<path d="M8.48271 7.84778V16.9029H15.9647L8.48271 7.84778Z" fill="url(#paint1_linear_13_772)"/>
<path fill-rule="evenodd" clip-rule="evenodd" d="M1.00072 16.9029H8.4827V7.84778L1.00072 16.9029Z" fill="white"/>
<path d="M4.78848 21.7322C6.78992 23.2461 9.27768 24.1469 11.9712 24.1469C14.6647 24.1469 17.1525 23.2461 19.1539 21.7322H4.78848Z" fill="#FF2D55"/>
<path d="M2.39424 19.3175C3.07698 20.2277 3.88596 21.0437 4.78848 21.7322H19.1539C20.0564 21.0437 20.8655 20.2277 21.5482 19.3175H2.39424Z" fill="#FC9965"/>
<path d="M16.0582 16.9028H1.00072C1.37014 17.7659 1.84244 18.5771 2.39423 19.3175H16.0676V16.9028H16.0582Z" fill="#FFBC5B"/>
<path d="M16.0582 12.6771V19.3175H21.5482L16.0582 12.6771Z" fill="url(#paint2_linear_13_772)"/>
<path fill-rule="evenodd" clip-rule="evenodd" d="M10.5777 19.3175H16.0582V12.6771L10.5777 19.3175Z" fill="white"/>
<path d="M16.0583 10.8661C17.7111 10.8661 19.0511 9.51469 19.0511 7.84771C19.0511 6.18072 17.7111 4.82935 16.0583 4.82935C14.4054 4.82935 13.0655 6.18072 13.0655 7.84771C13.0655 9.51469 14.4054 10.8661 16.0583 10.8661Z" fill="#FFC95B"/>
<path d="M8.48271 6.03668C9.30914 6.03668 9.97911 5.36099 9.97911 4.52749C9.97911 3.694 9.30914 3.01831 8.48271 3.01831C7.65627 3.01831 6.98631 3.694 6.98631 4.52749C6.98631 5.36099 7.65627 6.03668 8.48271 6.03668Z" fill="#FFC95B"/>
</g>
<defs>
<linearGradient id="paint0_linear_13_772" x1="20.2721" y1="5.5878" x2="1.22349" y2="20.2197" gradientUnits="userSpaceOnUse">
<stop offset="0.000350088" stop-color="#FF2C55"/>
<stop offset="1" stop-color="#FFBC5B"/>
</linearGradient>
<linearGradient id="paint1_linear_13_772" x1="12.2226" y1="7.84778" x2="12.2226" y2="16.9029" gradientUnits="userSpaceOnUse">
<stop stop-color="#A524B3"/>
<stop offset="1" stop-color="#FF2C55"/>
</linearGradient>
<linearGradient id="paint2_linear_13_772" x1="18.8038" y1="12.6771" x2="18.8038" y2="19.3175" gradientUnits="userSpaceOnUse">
<stop stop-color="#A524B3"/>
<stop offset="1" stop-color="#FF2C55"/>
</linearGradient>
</defs>
</svg>
