<svg width="40" height="40" viewBox="0 0 40 40" fill="none" xmlns="http://www.w3.org/2000/svg">
<g clip-path="url(#clip0_13_744)">
<path d="M20 3.33334C20.442 3.33344 20.8658 3.50909 21.1783 3.82168L24.025 6.66668H31.6667C32.942 6.66661 34.1692 7.15389 35.0971 8.02882C36.025 8.90375 36.5835 10.1002 36.6583 11.3733L36.6667 11.6667V23.3333C36.6667 24.6594 36.1399 25.9312 35.2022 26.8689C34.2645 27.8066 32.9928 28.3333 31.6667 28.3333H30V30C30 31.3261 29.4732 32.5979 28.5355 33.5355C27.5979 34.4732 26.3261 35 25 35H8.33333C7.00725 35 5.73548 34.4732 4.7978 33.5355C3.86012 32.5979 3.33333 31.3261 3.33333 30V15C3.33333 13.6739 3.86012 12.4022 4.7978 11.4645C5.73548 10.5268 7.00725 10 8.33333 10H10V8.33334C10 7.00726 10.5268 5.73549 11.4645 4.79781C12.4021 3.86013 13.6739 3.33334 15 3.33334H20ZM10 13.3333H8.33333C7.8913 13.3333 7.46738 13.5089 7.15482 13.8215C6.84226 14.1341 6.66667 14.558 6.66667 15V30C6.66667 30.442 6.84226 30.866 7.15482 31.1785C7.46738 31.4911 7.8913 31.6667 8.33333 31.6667H25C25.442 31.6667 25.8659 31.4911 26.1785 31.1785C26.4911 30.866 26.6667 30.442 26.6667 30V28.3333H15C13.6739 28.3333 12.4021 27.8066 11.4645 26.8689C10.5268 25.9312 10 24.6594 10 23.3333V13.3333Z" fill="white"/>
</g>
<defs>
<clipPath id="clip0_13_744">
<rect width="40" height="40" fill="white"/>
</clipPath>
</defs>
</svg>
