<svg width="40" height="40" viewBox="0 0 40 40" fill="none" xmlns="http://www.w3.org/2000/svg">
<g clip-path="url(#clip0_13_751)">
<path d="M20 3.33331L20.195 3.34498C20.567 3.38885 20.9134 3.55678 21.1783 3.82166C21.4432 4.08655 21.6111 4.43295 21.655 4.80498L21.6667 4.99998V11.6666L21.675 11.9166C21.7346 12.7103 22.0763 13.4564 22.6381 14.02C23.1999 14.5837 23.9449 14.9278 24.7383 14.99L25 15H31.6667L31.8617 15.0116C32.2337 15.0555 32.5801 15.2234 32.845 15.4883C33.1099 15.7532 33.2778 16.0996 33.3217 16.4716L33.3333 16.6666V31.6666C33.3334 32.942 32.8461 34.1692 31.9712 35.0971C31.0963 36.025 29.8998 36.5835 28.6267 36.6583L28.3333 36.6666H11.6667C10.3913 36.6667 9.16414 36.1794 8.23623 35.3045C7.30832 34.4296 6.74982 33.2331 6.675 31.96L6.66667 31.6666V8.33331C6.6666 7.05796 7.15388 5.83079 8.02881 4.90288C8.90374 3.97497 10.1002 3.41647 11.3733 3.34165L11.6667 3.33331H20ZM19.6667 18.3333C19.5451 18.3329 19.4258 18.3665 19.3224 18.4304C19.219 18.4944 19.1356 18.586 19.0817 18.695L17.2717 22.35L13.225 22.9366C13.1046 22.9533 12.9913 23.0035 12.898 23.0815C12.8048 23.1595 12.7353 23.2622 12.6976 23.3777C12.6599 23.4933 12.6554 23.6171 12.6847 23.7351C12.714 23.8531 12.7759 23.9605 12.8633 24.045L15.7917 26.89L15.1 30.9083C15.0808 31.0279 15.0951 31.1504 15.1415 31.2623C15.1879 31.3742 15.2645 31.471 15.3627 31.5419C15.4608 31.6127 15.5768 31.6549 15.6976 31.6637C15.8184 31.6725 15.9392 31.6476 16.0467 31.5916L19.6667 29.695L23.2867 31.5916C23.3941 31.6486 23.5153 31.6743 23.6365 31.6658C23.7578 31.6573 23.8742 31.615 23.9727 31.5437C24.0711 31.4723 24.1475 31.3748 24.1933 31.2622C24.2391 31.1496 24.2524 31.0264 24.2317 30.9066L23.5417 26.89L26.47 24.045C26.5568 23.9602 26.6181 23.8529 26.647 23.7351C26.676 23.6173 26.6713 23.4937 26.6337 23.3784C26.5961 23.2631 26.5269 23.1606 26.4341 23.0825C26.3412 23.0044 26.2284 22.9539 26.1083 22.9366L22.0617 22.35L20.2517 18.695C20.1977 18.586 20.1143 18.4944 20.0109 18.4304C19.9075 18.3665 19.7882 18.3329 19.6667 18.3333Z" fill="white"/>
<path d="M31.6667 11.6667H25L24.9983 4.99835L31.6667 11.6667Z" fill="white"/>
</g>
<defs>
<clipPath id="clip0_13_751">
<rect width="40" height="40" fill="white"/>
</clipPath>
</defs>
</svg>
